<?xml version="1.0" encoding="utf-8"?>
<!-- Generator: Adobe Illustrator 25.1.0, SVG Export Plug-In . SVG Version: 6.00 Build 0)  -->
<svg version="1.1" id="Layer_1" xmlns="http://www.w3.org/2000/svg" xmlns:xlink="http://www.w3.org/1999/xlink" x="0px" y="0px"
	 viewBox="0 0 512 512" style="enable-background:new 0 0 512 512;" xml:space="preserve">
<style type="text/css">
	.st0{fill:#D0D5C0;}
</style>
<path class="st0" d="M21.7,410v20.4c0,29.3,23.9,53.2,53.2,53.2h362.4c29.3,0,53.2-23.8,53.2-53.2V410H21.7z"/>
<path class="st0" d="M491.6,267.2c11.3,0,20.4-9.2,20.4-20.5c0-11.3-9.2-20.5-20.4-20.5H20.4C9.2,226.2,0,235.4,0,246.7
	c0,11.3,9.2,20.5,20.4,20.5h245.3h0h0.3c0.2,0,0.4,0,0.6,0c0.1,0,0.2,0,0.3,0c4.1,0.2,7.9,1.8,10.9,4.4l70.7,41.7l70.7-41.7
	c3-2.6,6.7-4.2,10.9-4.4c0.1,0,0.2,0,0.3,0c0.2,0,0.4,0,0.6,0h0.3h0H491.6z"/>
<path class="st0" d="M308.9,29H203.1c-93.9,0-171.4,71.8-180.5,163.4h466.9C480.3,100.8,402.9,29,308.9,29z M150.1,122.1
	c-9.5,0-16.5-7.8-16.9-16.9c-0.4-9.1,8.1-16.9,16.9-16.9c9.5,0,16.5,7.8,16.9,16.9C167.4,114.3,158.9,122.1,150.1,122.1z
	 M185.4,156.8c-9.5,0-16.5-7.8-16.9-16.9c-0.4-9.1,8.1-16.9,16.9-16.9c9.5,0,16.5,7.8,16.9,16.9
	C202.7,149.1,194.2,156.8,185.4,156.8z M220.7,122.1c-9.5,0-16.5-7.8-16.9-16.9c-0.4-9.1,8.1-16.9,16.9-16.9
	c9.5,0,16.5,7.8,16.9,16.9C238,114.3,229.5,122.1,220.7,122.1z M256,156.8c-9.5,0-16.5-7.8-16.9-16.9c-0.4-9.1,8.1-16.9,16.9-16.9
	c9.5,0,16.5,7.8,16.9,16.9C273.3,149.1,264.8,156.8,256,156.8z M291.3,122.1c-9.5,0-16.5-7.8-16.9-16.9c-0.4-9.1,8.1-16.9,16.9-16.9
	c9.5,0,16.5,7.8,16.9,16.9C308.6,114.3,300.2,122.1,291.3,122.1z M326.6,156.8c-9.5,0-16.5-7.8-16.9-16.9
	c-0.4-9.1,8.1-16.9,16.9-16.9c9.5,0,16.5,7.8,16.9,16.9C343.9,149.1,335.5,156.8,326.6,156.8z M361.9,122.1
	c-9.5,0-16.5-7.8-16.9-16.9c-0.4-9.1,8.1-16.9,16.9-16.9c9.5,0,16.5,7.8,16.9,16.9C379.2,114.3,370.8,122.1,361.9,122.1z"/>
<path class="st0" d="M509.7,339.6c0-20-16.3-36.3-36.3-36.3h-41.3l-74.4,43.9c-2.8,1.6-5.9,2.5-9.2,2.5c-3.2,0-6.4-0.9-9.2-2.5
	l-74.4-43.9H38.6c-20,0-36.3,16.3-36.3,36.3s16.3,36.3,36.3,36.3h434.9C493.5,375.9,509.7,359.6,509.7,339.6z"/>
</svg>
