<?xml version="1.0" encoding="utf-8"?>
<!-- Generator: Adobe Illustrator 25.1.0, SVG Export Plug-In . SVG Version: 6.00 Build 0)  -->
<svg version="1.1" id="Layer_1" xmlns="http://www.w3.org/2000/svg" xmlns:xlink="http://www.w3.org/1999/xlink" x="0px" y="0px"
	 viewBox="0 0 512 512" style="enable-background:new 0 0 512 512;" xml:space="preserve">
<style type="text/css">
	.st0{fill:none;stroke:#FCF9ED;stroke-width:15;stroke-miterlimit:10;}
	.st1{fill:none;stroke:#FCF9ED;stroke-width:5;stroke-miterlimit:10;}
	.st2{fill:none;stroke:#FCF9ED;stroke-width:8;stroke-miterlimit:10;}
</style>
<circle class="st0" cx="256" cy="256.1" r="242.1"/>
<path class="st0" d="M443.9,249.8c-41,26.1-116.2,54.4-70,129c15.3,125.1-123.6,67.6-116.9,57.9c62.3-90.9-45.6-67.6-70.2-43.8
	c-35.3,34.3-99.5,4.5-84.5-3.7c31.7-17-39.9-80-38.4-108.4c6.6-126.5,141.1-115,39.3-137.3c-40.1-8.8-28.5-73.7,79.8-88.9
	c54.7-7.6,67.6,71.8,125.4,48.6c192.2-77.5,53.8,69.3,65.1,56C384.9,145.8,547.7,183.7,443.9,249.8z"/>
<path class="st1" d="M301.5,198.9"/>
<g>
	<g>
		<path class="st2" d="M155.8,272.6c-6.9-4.3-15.4-4.9-22.9-1.5c-33.5,15.5-54.2,47.2-54.2,82.6s20.8,67.1,54.2,82.6
			c3.3,1.5,6.7,2.2,10.2,2.2c4.5,0,9-1.2,12.9-3.7c6.9-4.3,10.9-11.8,10.9-20V292.4C166.7,284.4,162.7,276.9,155.8,272.6
			L155.8,272.6z M156.9,414.8c0,4.8-2.4,9.1-6.4,11.7c-4,2.5-9.1,2.8-13.5,0.9c-30-13.9-48.6-42.1-48.6-73.7s18.7-59.8,48.6-73.7
			c1.9-0.9,3.9-1.3,6-1.3c2.5,0,5.2,0.7,7.5,2.2c4,2.5,6.4,6.9,6.4,11.7V414.8z"/>
		<path class="st2" d="M226.7,275.7c-7.3-4.3-16.1-4.5-23.6-0.1c-7.5,4.3-12.1,12-12.1,20.6v114.9c0,8.7,4.5,16.4,12.1,20.6
			c3.7,2.1,7.6,3.1,11.7,3.1c4.2,0,8.2-1,12-3.3c28.5-16.9,45.6-46,45.6-78C272.2,321.7,255.2,292.6,226.7,275.7L226.7,275.7z
			 M221.6,423.2c-4.2,2.5-9.4,2.5-13.7,0.1c-4.5-2.5-7-7-7-12.1V296.3c0-5.1,2.7-9.6,7-12.1c2.1-1.2,4.5-1.8,6.7-1.8
			c2.4,0,4.8,0.6,6.9,1.9c25.6,15.1,40.6,41.1,40.6,69.5S247.1,408.1,221.6,423.2L221.6,423.2z"/>
		<path class="st2" d="M140.4,323.1l-15.7-7.9c-2.4-1.2-5.4-0.3-6.6,2.2c-1.2,2.4-0.3,5.4,2.2,6.6l15.7,7.9c0.7,0.3,1.5,0.4,2.2,0.4
			c1.8,0,3.6-1,4.5-2.7C143.9,327.2,142.8,324.3,140.4,323.1z"/>
		<path class="st2" d="M140.4,353.7c0-2.7-2.2-4.9-4.9-4.9h-18.4c-2.7,0-4.9,2.2-4.9,4.9s2.2,4.9,4.9,4.9h18.4
			C138.3,358.6,140.4,356.4,140.4,353.7z"/>
		<path class="st2" d="M134.6,377.8l-13.2,6.6c-2.4,1.2-3.4,4.2-2.2,6.6c0.9,1.8,2.5,2.7,4.5,2.7c0.7,0,1.5-0.1,2.2-0.4l13.2-6.6
			c2.4-1.2,3.4-4.2,2.2-6.6C140,377.5,137,376.6,134.6,377.8z"/>
		<path class="st2" d="M234.1,384.3l-15.7-7.9c-2.4-1.2-5.4-0.3-6.6,2.2c-1.2,2.4-0.3,5.4,2.2,6.6l15.7,7.9c0.7,0.3,1.5,0.4,2.2,0.4
			c1.8,0,3.6-1,4.5-2.7C237.6,388.5,236.7,385.5,234.1,384.3z"/>
		<path class="st2" d="M218.9,349.8c-2.7,0-4.9,2.2-4.9,4.9s2.2,4.9,4.9,4.9h18.4c2.7,0,4.9-2.2,4.9-4.9s-2.2-4.9-4.9-4.9H218.9z"/>
		<path class="st2" d="M217.7,331.1c0.7,0,1.5-0.1,2.2-0.4l13.2-6.6c2.4-1.2,3.4-4.2,2.2-6.6s-4.2-3.4-6.6-2.2l-13.2,6.6
			c-2.4,1.2-3.4,4.2-2.2,6.6C214.1,330.1,215.8,331.1,217.7,331.1z"/>
	</g>
	<circle class="st2" cx="175.4" cy="353.7" r="121.5"/>
</g>
<g>
	<g>
		<path class="st2" d="M317,77.4c-6.9-4.3-15.4-4.9-22.9-1.5c-33.5,15.5-54.2,47.2-54.2,82.6s20.8,67.1,54.2,82.6
			c3.3,1.5,6.7,2.2,10.2,2.2c4.5,0,9-1.2,12.9-3.7c6.9-4.3,10.9-11.8,10.9-20V97.2C327.9,89.2,323.9,81.7,317,77.4L317,77.4z
			 M318.1,219.6c0,4.8-2.4,9.1-6.4,11.7c-4,2.5-9.1,2.8-13.5,0.9c-30-13.9-48.6-42.1-48.6-73.7s18.7-59.8,48.6-73.7
			c1.9-0.9,3.9-1.3,6-1.3c2.5,0,5.2,0.7,7.5,2.2c4,2.5,6.4,6.9,6.4,11.7V219.6z"/>
		<path class="st2" d="M387.9,80.5c-7.3-4.3-16.1-4.5-23.6-0.1c-7.5,4.3-12.1,12-12.1,20.6v114.9c0,8.7,4.5,16.4,12.1,20.6
			c3.7,2.1,7.6,3.1,11.7,3.1c4.2,0,8.2-1,12-3.3c28.5-16.9,45.6-46,45.6-78C433.4,126.5,416.4,97.4,387.9,80.5L387.9,80.5z
			 M382.8,228c-4.2,2.5-9.4,2.5-13.7,0.1c-4.5-2.5-7-7-7-12.1V101.1c0-5.1,2.7-9.6,7-12.1c2.1-1.2,4.5-1.8,6.7-1.8
			c2.4,0,4.8,0.6,6.9,1.9c25.6,15.1,40.6,41.1,40.6,69.5S408.3,212.9,382.8,228L382.8,228z"/>
		<path class="st2" d="M301.6,127.9l-15.7-7.9c-2.4-1.2-5.4-0.3-6.6,2.2c-1.2,2.4-0.3,5.4,2.2,6.6l15.7,7.9c0.7,0.3,1.5,0.4,2.2,0.4
			c1.8,0,3.6-1,4.5-2.7C305.1,132,304,129.1,301.6,127.9z"/>
		<path class="st2" d="M301.6,158.5c0-2.7-2.2-4.9-4.9-4.9h-18.4c-2.7,0-4.9,2.2-4.9,4.9s2.2,4.9,4.9,4.9h18.4
			C299.5,163.4,301.6,161.2,301.6,158.5z"/>
		<path class="st2" d="M295.8,182.6l-13.2,6.6c-2.4,1.2-3.4,4.2-2.2,6.6c0.9,1.8,2.5,2.7,4.5,2.7c0.7,0,1.5-0.1,2.2-0.4l13.2-6.6
			c2.4-1.2,3.4-4.2,2.2-6.6C301.2,182.3,298.2,181.4,295.8,182.6z"/>
		<path class="st2" d="M395.3,189.1l-15.7-7.9c-2.4-1.2-5.4-0.3-6.6,2.2c-1.2,2.4-0.3,5.4,2.2,6.6l15.7,7.9c0.7,0.3,1.5,0.4,2.2,0.4
			c1.8,0,3.6-1,4.5-2.7C398.8,193.3,397.9,190.3,395.3,189.1z"/>
		<path class="st2" d="M380.1,154.6c-2.7,0-4.9,2.2-4.9,4.9s2.2,4.9,4.9,4.9h18.4c2.7,0,4.9-2.2,4.9-4.9s-2.2-4.9-4.9-4.9H380.1z"/>
		<path class="st2" d="M378.9,135.9c0.7,0,1.5-0.1,2.2-0.4l13.2-6.6c2.4-1.2,3.4-4.2,2.2-6.6c-1.2-2.4-4.2-3.4-6.6-2.2l-13.2,6.6
			c-2.4,1.2-3.4,4.2-2.2,6.6C375.3,134.9,377,135.9,378.9,135.9z"/>
	</g>
	<circle class="st2" cx="336.6" cy="158.5" r="121.5"/>
</g>
</svg>
