<?xml version="1.0" encoding="utf-8"?>
<!-- Generator: Adobe Illustrator 25.1.0, SVG Export Plug-In . SVG Version: 6.00 Build 0)  -->
<svg version="1.1" id="Layer_1" xmlns="http://www.w3.org/2000/svg" xmlns:xlink="http://www.w3.org/1999/xlink" x="0px" y="0px"
	 viewBox="0 0 511 511" style="enable-background:new 0 0 511 511;" xml:space="preserve">
<style type="text/css">
	.st0{fill:#DAD5C0;}
</style>
<path class="st0" d="M484,177c0.7-34.6-19.6-65.7-51.1-79.1c-4.6-29.5-28.4-52.6-57.9-56.5c-0.3-2.9-0.8-5.9-1.7-8.8
	c-5.2-17.8-20.9-31.2-39-33.3c-11.6-1.4-23,1.5-32.3,8.1C293.8,1.9,284.2-1,274.3-1c-25.4,0-46.5,18.7-50.1,43.1
	c-0.9,0.2-1.8,0.4-2.7,0.7c-0.8-2-1.7-4-2.7-5.9c-13-25.7-35.9-40.6-57.1-37.2c-13.9,2.3-25.5,11.7-32.2,26
	c-12.2-5.6-24.7-6.6-36-2.6c-12,4.2-21.4,13.3-27.1,26.2c-7.5,17.1-7.5,39.1-0.3,60.1c-9.8,6.7-17.1,16.6-21.3,28.9
	C37.6,159,40,184.1,51.3,207c1.2,2.5,2.6,5,4.1,7.4c-10.7,6.9-18.6,17.2-22.9,29.8c-6.8,19.9-3.8,43.4,8.3,64.3
	c5.5,9.6,12.9,18.4,21.4,25.5c-2.8,11.9-0.7,25,6.2,36.9c9.8,16.7,27.3,27.9,45.9,29.7c29.2,54.8,65.4,78.3,121.1,101.9l0.6,0.3
	c7.8,4.9,16.8,7.1,25.6,7.1c5.2,0,10.4-0.8,15.3-2.2c0.1,0,0.2,0,0.2,0c0,0,0.1,0,0.1-0.1c4.2-1.2,8.1-2.8,11.6-4.9
	c16.8-9.8,23.7-26.6,17.8-43.8c-16.8-49.4-15.5-86.5,4.1-110.2c33.8-41.1,112.3-31,113-30.8l9.1,1.2l0.9-9.2
	c0.1-1.2,2.7-29.8-13.9-49.2c-1-1.1-2-2.2-3-3.2c4.7-1,9.4-2.5,14-4.5C462.4,239.7,483.3,209.8,484,177z M127.7,388l-2.5-4.9l-5.5,0
	c-0.1,0-0.2,0-0.2,0c-14,0-28.3-8.5-35.8-21.2c-5.4-9.2-6.5-19.3-3-27.7l2.7-6.5l-5.7-4.1c-8.7-6.4-16.2-14.7-21.6-24
	c-9.5-16.5-12-34.7-6.8-49.7c3.9-11.3,11.6-19.6,22.4-24l10.5-4.3l-6.8-9.1c-3.2-4.3-5.9-8.8-8.2-13.3c-9.1-18.4-11.3-39-5.7-55.1
	c3.7-10.7,10.4-18.6,19.4-22.9l7.6-3.6l-3.2-7.8l-0.4-0.8c-7.8-18.4-8.7-38-2.3-52.5c2.5-5.8,7.5-13.4,16.7-16.6
	c8.9-3.1,19.5-1,29.9,6.1l10.2,6.9l3.3-11.9c3.7-13.4,11.6-22,21.8-23.6c13.3-2.3,29.1,9.2,38.4,27.6c0.7,1.5,1.4,3,2.1,4.5
	c-0.2,0.1-0.4,0.3-0.6,0.4c-1.8,1.1-3.6,2.3-5.3,3.5c-1,0.7-2,1.5-2.9,2.4c-0.6,0.5-1.3,1.1-1.9,1.7c-3.6,3.2-6.7,6.8-9.5,10.7
	c-0.2,0.3-0.4,0.6-0.6,0.9c-1.6,2.3-3,4.7-4.2,7.3c-0.3,0.6-0.6,1.2-0.9,1.8c-0.5,1.2-1,2.4-1.5,3.6c-0.5,1.3-0.9,2.6-1.3,3.9
	c-0.3,1.1-0.7,2.2-0.9,3.3c-0.5,1.9-0.9,3.9-1.2,5.8c-0.1,0.7-0.2,1.4-0.3,2.2c-0.3,2.4-0.5,4.9-0.5,7.4c0,1.6,0.1,3.2,0.2,4.9
	c-33.6,6.1-58.8,35.3-58.8,70.4c0,10.2,2.2,20.2,6.4,29.5c-9.5,10.1-14.8,23.4-14.8,37.5c0,21,12.1,40,30.6,49.2
	c0,4.7,0,9.4,0.2,13.9c0.1,1.5,0.2,2.9,0.2,4.4c0.1,3,0.3,6,0.6,9c0.1,1.7,0.3,3.3,0.5,5c0.3,2.7,0.6,5.3,0.9,7.9
	c0.2,1.7,0.5,3.4,0.8,5c0.4,2.5,0.8,4.9,1.3,7.4c0.3,1.6,0.7,3.3,1,4.9c0.5,2.4,1.1,4.8,1.7,7.2c0.4,1.5,0.8,3.1,1.2,4.6
	c0.7,2.5,1.5,5,2.3,7.4c0.4,1.3,0.8,2.7,1.3,4c1,2.9,2.1,5.8,3.2,8.7c0.3,0.8,0.6,1.6,0.9,2.4c1.5,3.7,3.1,7.3,4.8,10.9
	c0.5,1,1,2,1.5,3c1.3,2.6,2.5,5.1,3.9,7.7c0.7,1.4,1.5,2.7,2.3,4.1c1.2,2.2,2.4,4.4,3.7,6.6c0.9,1.5,1.8,3,2.7,4.4
	c1.3,2.1,2.6,4.1,3.9,6.2c1,1.5,2,3.1,3,4.6c1.4,2.1,2.8,4.1,4.2,6.2c1.1,1.5,2.1,3.1,3.2,4.6c1.5,2.1,3.1,4.2,4.7,6.3
	c1.1,1.5,2.2,3,3.4,4.5c1.7,2.2,3.5,4.5,5.3,6.8c1.1,1.4,2.2,2.8,3.3,4.2c0.1,0.1,0.2,0.2,0.3,0.4
	C170.8,449.6,147.8,427.5,127.7,388z M384.5,239.8l-2.4-0.4l-8.6,2l-0.9,19.6l8.9,0.5c10.9,0.6,19.1,4.1,24.9,10.8
	c7,8.1,9.2,19.4,9.7,27.1c-24.4-1.6-86.5-1.4-119,38.1c-23.8,28.8-26.2,71.6-7.2,127.3c4.2,12.3-4.4,19.6-10,22.8
	c-0.4,0.2-0.8,0.4-1.2,0.6c-17.4-42.7-28.2-80.7-34-114.4c0-0.2-0.1-0.4-0.1-0.6c-4.6-26.9-6.1-51.1-5.2-72.7
	c12.4-21.2,49-22,49.3-22.1c4.9-0.1,8.8-4.1,8.7-9c-0.1-4.9-4-8.8-8.9-8.8c0,0-0.1,0-0.1,0c-1.4,0-26.8,0.6-46.8,13.2
	c2.4-17.6,6.5-33.2,11.6-47c0.5-0.6,1-1.3,1.3-2c0.5-1.1,0.8-2.3,0.8-3.5c6.4-16,14-29.5,22-40.7c39.8-8.3,69.8,4.2,70.5,4.4
	c1.2,0.5,2.4,0.7,3.5,0.7c3.4,0,6.7-2,8.1-5.3c2-4.5-0.1-9.7-4.6-11.7c-1.2-0.5-25.7-11-60.9-8.4c17.2-17.9,32.3-26.1,34.5-27.2
	c12.9-6.2,31.7,1.8,37.9,5.4c1.4,0.8,3,1.2,4.5,1.2c3,0,6-1.6,7.7-4.4c2.5-4.2,1.1-9.7-3.1-12.2c-1-0.6-21-12.1-41.4-9.8
	c1.7-7.2,5.6-13.7,7.6-16.4c3-3.9,2.2-9.5-1.7-12.4c-3.9-3-9.5-2.2-12.4,1.7c-0.6,0.7-12.2,16.2-12.2,33.9
	c-12.9,7.9-46.3,31.9-69.6,80.1c-1.3,2.6-2.5,5.4-3.7,8.2c-24.2-16.6-20.2-46-20-47.4c0.8-4.8-2.5-9.4-7.4-10.1
	c-4.8-0.8-9.4,2.5-10.2,7.4c-2.6,16.1,1.1,49.3,31,67.1c-6.6,19.4-11.6,42.6-13.2,70c-0.2,0.9-0.2,1.7-0.1,2.5
	c-0.9,19.2,0,40.5,3.1,63.8c-11.3-6.2-16.4-15.3-16.7-15.9c-2.3-4.3-7.7-6-12-3.7c-4.3,2.3-6,7.7-3.7,12
	c0.5,0.9,11.1,20.5,35.7,28.1c6,32.7,16.4,69.3,32.8,110c-5.6-0.1-11.1-1.5-15.9-4.4l0,0c-1-0.6-1.8-1.2-2.5-1.8
	c-1-0.8-1.9-1.6-2.8-2.5c0,0-0.1-0.1-0.1-0.1l-3.7-4.2c-55.6-64-83.4-110.8-81.2-189l0.2-6.5l-6.1-2.1c-14.8-5.2-24.8-19.3-24.8-35
	c0-11.2,5-21.6,13.6-28.7l5.8-4.8l-3.8-6.5c-4.7-8.2-7.3-17.5-7.3-26.9c0-28.9,22.7-52.5,51.6-53.8l10.8-0.5l-2.5-10.5
	c-0.9-3.6-1.3-7.2-1.3-10.6c0-2.7,0.3-5.4,0.8-8c0.1-0.7,0.3-1.3,0.4-2c0.5-2,1-4,1.8-6c0.2-0.5,0.4-1.1,0.6-1.6
	c1-2.3,2.1-4.5,3.4-6.6c0.1-0.1,0.1-0.2,0.1-0.2c2.9-4.5,6.5-8.4,10.7-11.6c0.6-0.4,1.2-0.8,1.8-1.3c1.4-1,2.9-1.9,4.4-2.7
	c1-0.5,1.9-1,2.9-1.5c4.7-2.1,9.7-3.6,15.1-4l8.2-0.6v-8.3l0-0.7c0.3-17.9,15-32.5,33-32.5c8,0,15.8,3.1,22,8.6l6.2,5.6l6-5.9
	c6.3-6.2,14.9-9.2,23.8-8.1c11.1,1.3,20.8,9.6,24.1,20.7c1.1,3.6,1.4,7.4,1,11l-0.9,9.9h10c26,0,47.7,20.3,49.5,46.2l0.4,5.8
	l5.5,1.9c27.2,9.5,45,35.3,44.5,64c-0.5,25.8-17.2,49.4-42.4,60.1C411.1,242.1,398.3,243.1,384.5,239.8z"/>
</svg>
